# MagicaVoxel @ Ephtracy

# group
g chicken

# material
mtllib chicken.mtl
usemtl palette

# normals
vn -1 0 0
vn 1 0 0
vn 0 0 1
vn 0 0 -1
vn 0 -1 0
vn 0 1 0

# texcoords
vt 0.0214844 0.5
vt 0.0253906 0.5
vt 0.0292969 0.5

# verts
v -4 4 1
v -4 4 -2
v -4 5 -2
v -4 5 -3
v -4 7 1
v -4 7 -3
v -3 3 2
v -3 3 -4
v -3 4 1
v -3 4 -2
v -3 5 -2
v -3 5 -3
v -3 7 1
v -3 7 -3
v -3 8 2
v -3 8 -4
v -2 0 1
v -2 0 -1
v -2 1 1
v -2 1 -0
v -2 3 -0
v -2 3 -1
v -2 7 4
v -2 7 2
v -2 7 -4
v -2 7 -5
v -2 8 2
v -2 8 -0
v -2 8 -4
v -2 9 3
v -2 9 2
v -2 9 -4
v -2 9 -5
v -2 10 3
v -2 10 2
v -2 11 4
v -2 11 -0
v -1 6 -4
v -1 6 -5
v -1 7 -4
v -1 7 -5
v -1 8 5
v -1 8 4
v -1 9 5
v -1 9 4
v 1 0 1
v 1 0 -1
v 1 1 1
v 1 1 -0
v 1 3 -0
v 1 3 -1
v -1 0 1
v -1 0 -1
v -1 1 1
v -1 1 -0
v -1 3 -0
v -1 3 -1
v 1 6 -4
v 1 6 -5
v 1 7 -4
v 1 7 -5
v 1 8 5
v 1 8 4
v 1 9 5
v 1 9 4
v 2 0 1
v 2 0 -1
v 2 1 1
v 2 1 -0
v 2 3 -0
v 2 3 -1
v 2 7 4
v 2 7 2
v 2 7 -4
v 2 7 -5
v 2 8 2
v 2 8 -0
v 2 8 -4
v 2 9 3
v 2 9 2
v 2 9 -4
v 2 9 -5
v 2 10 3
v 2 10 2
v 2 11 4
v 2 11 -0
v 3 3 2
v 3 3 -4
v 3 4 1
v 3 4 -2
v 3 5 -2
v 3 5 -3
v 3 7 1
v 3 7 -3
v 3 8 2
v 3 8 -4
v 4 4 1
v 4 4 -2
v 4 5 -2
v 4 5 -3
v 4 7 1
v 4 7 -3
v -1 8 5
v -1 9 5
v 1 8 5
v 1 9 5
v -2 7 4
v -2 11 4
v -1 8 4
v -1 9 4
v 1 8 4
v 1 9 4
v 2 7 4
v 2 11 4
v -3 3 2
v -3 8 2
v -2 7 2
v -2 8 2
v 2 7 2
v 2 8 2
v 3 3 2
v 3 8 2
v -4 4 1
v -4 7 1
v -3 4 1
v -3 7 1
v -2 0 1
v -2 1 1
v -1 0 1
v -1 1 1
v 1 0 1
v 1 1 1
v 2 0 1
v 2 1 1
v 3 4 1
v 3 7 1
v 4 4 1
v 4 7 1
v -2 1 -0
v -2 3 -0
v -1 1 -0
v -1 3 -0
v 1 1 -0
v 1 3 -0
v 2 1 -0
v 2 3 -0
v -2 8 -4
v -2 9 -4
v 2 8 -4
v 2 9 -4
v -2 8 -0
v -2 11 -0
v 2 8 -0
v 2 11 -0
v -2 0 -1
v -2 3 -1
v -1 0 -1
v -1 3 -1
v 1 0 -1
v 1 3 -1
v 2 0 -1
v 2 3 -1
v -4 4 -2
v -4 5 -2
v -3 4 -2
v -3 5 -2
v 3 4 -2
v 3 5 -2
v 4 4 -2
v 4 5 -2
v -4 5 -3
v -4 7 -3
v -3 5 -3
v -3 7 -3
v 3 5 -3
v 3 7 -3
v 4 5 -3
v 4 7 -3
v -3 3 -4
v -3 8 -4
v -2 7 -4
v -2 8 -4
v -1 6 -4
v -1 7 -4
v 1 6 -4
v 1 7 -4
v 2 7 -4
v 2 8 -4
v 3 3 -4
v 3 8 -4
v -2 7 -5
v -2 9 -5
v -1 6 -5
v -1 7 -5
v 1 6 -5
v 1 7 -5
v 2 7 -5
v 2 9 -5
v -2 0 1
v -1 0 1
v 1 0 1
v 2 0 1
v -2 0 -1
v -1 0 -1
v 1 0 -1
v 2 0 -1
v -3 3 2
v 3 3 2
v -2 3 -0
v -1 3 -0
v 1 3 -0
v 2 3 -0
v -2 3 -1
v -1 3 -1
v 1 3 -1
v 2 3 -1
v -3 3 -4
v 3 3 -4
v -4 4 1
v -3 4 1
v 3 4 1
v 4 4 1
v -4 4 -2
v -3 4 -2
v 3 4 -2
v 4 4 -2
v -4 5 -2
v -3 5 -2
v 3 5 -2
v 4 5 -2
v -4 5 -3
v -3 5 -3
v 3 5 -3
v 4 5 -3
v -1 6 -4
v 1 6 -4
v -1 6 -5
v 1 6 -5
v -2 7 4
v 2 7 4
v -2 7 2
v 2 7 2
v -2 7 -4
v -1 7 -4
v 1 7 -4
v 2 7 -4
v -2 7 -5
v -1 7 -5
v 1 7 -5
v 2 7 -5
v -1 8 5
v 1 8 5
v -1 8 4
v 1 8 4
v -2 1 1
v -1 1 1
v 1 1 1
v 2 1 1
v -2 1 -0
v -1 1 -0
v 1 1 -0
v 2 1 -0
v -4 7 1
v -3 7 1
v 3 7 1
v 4 7 1
v -4 7 -3
v -3 7 -3
v 3 7 -3
v 4 7 -3
v -3 8 2
v -2 8 2
v 2 8 2
v 3 8 2
v -2 8 -0
v 2 8 -0
v -3 8 -4
v -2 8 -4
v 2 8 -4
v 3 8 -4
v -1 9 5
v 1 9 5
v -1 9 4
v 1 9 4
v -2 9 -4
v 2 9 -4
v -2 9 -5
v 2 9 -5
v -2 11 4
v 2 11 4
v -2 11 -0
v 2 11 -0

# faces
f 3/2/1 2/2/1 1/2/1
f 5/2/1 3/2/1 1/2/1
f 5/2/1 4/2/1 3/2/1
f 6/2/1 4/2/1 5/2/1
f 9/2/1 8/2/1 7/2/1
f 10/2/1 8/2/1 9/2/1
f 11/2/1 8/2/1 10/2/1
f 12/2/1 8/2/1 11/2/1
f 13/2/1 9/2/1 7/2/1
f 14/2/1 8/2/1 12/2/1
f 15/2/1 13/2/1 7/2/1
f 15/2/1 14/2/1 13/2/1
f 16/2/1 8/2/1 14/2/1
f 16/2/1 14/2/1 15/2/1
f 19/3/1 18/3/1 17/3/1
f 20/3/1 18/3/1 19/3/1
f 21/3/1 18/3/1 20/3/1
f 22/3/1 18/3/1 21/3/1
f 27/2/1 24/2/1 23/2/1
f 29/2/1 26/2/1 25/2/1
f 30/2/1 28/2/1 27/2/1
f 30/2/1 27/2/1 23/2/1
f 31/2/1 28/2/1 30/2/1
f 32/2/1 26/2/1 29/2/1
f 33/2/1 26/2/1 32/2/1
f 34/2/1 30/2/1 23/2/1
f 34/1/1 31/1/1 30/1/1
f 35/2/1 28/2/1 31/2/1
f 35/1/1 31/1/1 34/1/1
f 36/2/1 34/2/1 23/2/1
f 36/2/1 35/2/1 34/2/1
f 37/2/1 28/2/1 35/2/1
f 37/2/1 35/2/1 36/2/1
f 40/2/1 39/2/1 38/2/1
f 41/2/1 39/2/1 40/2/1
f 44/3/1 43/3/1 42/3/1
f 45/3/1 43/3/1 44/3/1
f 48/3/1 47/3/1 46/3/1
f 49/3/1 47/3/1 48/3/1
f 50/3/1 47/3/1 49/3/1
f 51/3/1 47/3/1 50/3/1
f 52/3/2 53/3/2 54/3/2
f 54/3/2 53/3/2 55/3/2
f 55/3/2 53/3/2 56/3/2
f 56/3/2 53/3/2 57/3/2
f 58/2/2 59/2/2 60/2/2
f 60/2/2 59/2/2 61/2/2
f 62/3/2 63/3/2 64/3/2
f 64/3/2 63/3/2 65/3/2
f 66/3/2 67/3/2 68/3/2
f 68/3/2 67/3/2 69/3/2
f 69/3/2 67/3/2 70/3/2
f 70/3/2 67/3/2 71/3/2
f 72/2/2 73/2/2 76/2/2
f 74/2/2 75/2/2 78/2/2
f 76/2/2 77/2/2 79/2/2
f 72/2/2 76/2/2 79/2/2
f 79/2/2 77/2/2 80/2/2
f 78/2/2 75/2/2 81/2/2
f 81/2/2 75/2/2 82/2/2
f 72/2/2 79/2/2 83/2/2
f 79/1/2 80/1/2 83/1/2
f 80/2/2 77/2/2 84/2/2
f 83/1/2 80/1/2 84/1/2
f 72/2/2 83/2/2 85/2/2
f 83/2/2 84/2/2 85/2/2
f 84/2/2 77/2/2 86/2/2
f 85/2/2 84/2/2 86/2/2
f 87/2/2 88/2/2 89/2/2
f 89/2/2 88/2/2 90/2/2
f 90/2/2 88/2/2 91/2/2
f 91/2/2 88/2/2 92/2/2
f 87/2/2 89/2/2 93/2/2
f 92/2/2 88/2/2 94/2/2
f 87/2/2 93/2/2 95/2/2
f 93/2/2 94/2/2 95/2/2
f 94/2/2 88/2/2 96/2/2
f 95/2/2 94/2/2 96/2/2
f 97/2/2 98/2/2 99/2/2
f 97/2/2 99/2/2 101/2/2
f 99/2/2 100/2/2 101/2/2
f 101/2/2 100/2/2 102/2/2
f 105/3/3 104/3/3 103/3/3
f 106/3/3 104/3/3 105/3/3
f 109/2/3 108/2/3 107/2/3
f 110/2/3 108/2/3 109/2/3
f 111/2/3 109/2/3 107/2/3
f 112/2/3 108/2/3 110/2/3
f 113/2/3 111/2/3 107/2/3
f 113/2/3 112/2/3 111/2/3
f 114/2/3 108/2/3 112/2/3
f 114/2/3 112/2/3 113/2/3
f 117/2/3 116/2/3 115/2/3
f 118/2/3 116/2/3 117/2/3
f 119/2/3 117/2/3 115/2/3
f 121/2/3 119/2/3 115/2/3
f 121/2/3 120/2/3 119/2/3
f 122/2/3 120/2/3 121/2/3
f 125/2/3 124/2/3 123/2/3
f 126/2/3 124/2/3 125/2/3
f 129/3/3 128/3/3 127/3/3
f 130/3/3 128/3/3 129/3/3
f 133/3/3 132/3/3 131/3/3
f 134/3/3 132/3/3 133/3/3
f 137/2/3 136/2/3 135/2/3
f 138/2/3 136/2/3 137/2/3
f 141/3/3 140/3/3 139/3/3
f 142/3/3 140/3/3 141/3/3
f 145/3/3 144/3/3 143/3/3
f 146/3/3 144/3/3 145/3/3
f 149/2/3 148/2/3 147/2/3
f 150/2/3 148/2/3 149/2/3
f 151/2/4 152/2/4 153/2/4
f 153/2/4 152/2/4 154/2/4
f 155/3/4 156/3/4 157/3/4
f 157/3/4 156/3/4 158/3/4
f 159/3/4 160/3/4 161/3/4
f 161/3/4 160/3/4 162/3/4
f 163/2/4 164/2/4 165/2/4
f 165/2/4 164/2/4 166/2/4
f 167/2/4 168/2/4 169/2/4
f 169/2/4 168/2/4 170/2/4
f 171/2/4 172/2/4 173/2/4
f 173/2/4 172/2/4 174/2/4
f 175/2/4 176/2/4 177/2/4
f 177/2/4 176/2/4 178/2/4
f 179/2/4 180/2/4 181/2/4
f 181/2/4 180/2/4 182/2/4
f 179/2/4 181/2/4 183/2/4
f 183/2/4 181/2/4 184/2/4
f 179/2/4 183/2/4 185/2/4
f 185/2/4 186/2/4 187/2/4
f 185/2/4 187/2/4 189/2/4
f 187/2/4 188/2/4 189/2/4
f 179/2/4 185/2/4 189/2/4
f 189/2/4 188/2/4 190/2/4
f 191/2/4 192/2/4 194/2/4
f 193/2/4 194/2/4 195/2/4
f 194/2/4 192/2/4 196/2/4
f 195/2/4 194/2/4 196/2/4
f 196/2/4 192/2/4 197/2/4
f 197/2/4 192/2/4 198/2/4
f 203/3/5 200/3/5 199/3/5
f 204/3/5 200/3/5 203/3/5
f 205/3/5 202/3/5 201/3/5
f 206/3/5 202/3/5 205/3/5
f 209/2/5 208/2/5 207/2/5
f 210/2/5 208/2/5 209/2/5
f 211/2/5 208/2/5 210/2/5
f 212/2/5 208/2/5 211/2/5
f 213/2/5 209/2/5 207/2/5
f 214/2/5 211/2/5 210/2/5
f 215/2/5 211/2/5 214/2/5
f 216/2/5 208/2/5 212/2/5
f 217/2/5 215/2/5 214/2/5
f 217/2/5 216/2/5 215/2/5
f 217/2/5 213/2/5 207/2/5
f 217/2/5 214/2/5 213/2/5
f 218/2/5 208/2/5 216/2/5
f 218/2/5 216/2/5 217/2/5
f 223/2/5 220/2/5 219/2/5
f 224/2/5 220/2/5 223/2/5
f 225/2/5 222/2/5 221/2/5
f 226/2/5 222/2/5 225/2/5
f 231/2/5 228/2/5 227/2/5
f 232/2/5 228/2/5 231/2/5
f 233/2/5 230/2/5 229/2/5
f 234/2/5 230/2/5 233/2/5
f 237/2/5 236/2/5 235/2/5
f 238/2/5 236/2/5 237/2/5
f 241/2/5 240/2/5 239/2/5
f 242/2/5 240/2/5 241/2/5
f 247/2/5 244/2/5 243/2/5
f 248/2/5 244/2/5 247/2/5
f 249/2/5 246/2/5 245/2/5
f 250/2/5 246/2/5 249/2/5
f 253/3/5 252/3/5 251/3/5
f 254/3/5 252/3/5 253/3/5
f 255/3/6 256/3/6 259/3/6
f 259/3/6 256/3/6 260/3/6
f 257/3/6 258/3/6 261/3/6
f 261/3/6 258/3/6 262/3/6
f 263/2/6 264/2/6 267/2/6
f 267/2/6 264/2/6 268/2/6
f 265/2/6 266/2/6 269/2/6
f 269/2/6 266/2/6 270/2/6
f 271/2/6 272/2/6 275/2/6
f 273/2/6 274/2/6 276/2/6
f 271/2/6 275/2/6 277/2/6
f 275/2/6 276/2/6 277/2/6
f 277/2/6 276/2/6 278/2/6
f 276/2/6 274/2/6 279/2/6
f 278/2/6 276/2/6 279/2/6
f 279/2/6 274/2/6 280/2/6
f 281/3/6 282/3/6 283/3/6
f 283/3/6 282/3/6 284/3/6
f 285/2/6 286/2/6 287/2/6
f 287/2/6 286/2/6 288/2/6
f 289/2/6 290/2/6 291/2/6
f 291/2/6 290/2/6 292/2/6
